<svg version="1.1" viewBox="0.0 0.0 960.0 720.0" fill="none" stroke="none" stroke-linecap="square" stroke-miterlimit="10" xmlns:xlink="http://www.w3.org/1999/xlink" xmlns="http://www.w3.org/2000/svg"><clipPath id="p.0"><path d="m0 0l960.0 0l0 720.0l-960.0 0l0 -720.0z" clip-rule="nonzero"/></clipPath><g clip-path="url(#p.0)"><path fill="#000000" fill-opacity="0.0" d="m0 0l960.0 0l0 720.0l-960.0 0z" fill-rule="evenodd"/><defs><radialGradient id="p.1" gradientUnits="userSpaceOnUse" gradientTransform="matrix(22.818434177660176 0.0 0.0 22.818434177660176 0.0 0.0)" spreadMethod="pad" cx="21.035623928566146" cy="19.690185974211172" fx="21.035623928566146" fy="19.690185974211172" r="22.81843376159668"><stop offset="0.0" stop-color="#bfbfbf"/><stop offset="1.0" stop-color="#737373"/></radialGradient></defs><path fill="url(#p.1)" d="m0 449.29922l0 0c0 -111.43106 214.90332 -201.7638 480.0 -201.7638l0 0c265.09668 0 480.0 90.33273 480.0 201.7638l0 0c0 111.43106 -214.90332 201.76376 -480.0 201.76376l0 0c-265.09668 0 -480.0 -90.3327 -480.0 -201.76376z" fill-rule="evenodd"/><path stroke="#000000" stroke-width="1.0" stroke-linejoin="round" stroke-linecap="butt" d="m0 449.29922l0 0c0 -111.43106 214.90332 -201.7638 480.0 -201.7638l0 0c265.09668 0 480.0 90.33273 480.0 201.7638l0 0c0 111.43106 -214.90332 201.76376 -480.0 201.76376l0 0c-265.09668 0 -480.0 -90.3327 -480.0 -201.76376z" fill-rule="evenodd"/><defs><radialGradient id="p.2" gradientUnits="userSpaceOnUse" gradientTransform="matrix(22.12823704392006 0.0 0.0 22.12823704392006 0.0 0.0)" spreadMethod="pad" cx="21.687471571210512" cy="18.848258870766056" fx="21.687471571210512" fy="18.848258870766056" r="22.128236770629883"><stop offset="0.0" stop-color="#dfe9fb"/><stop offset="1.0" stop-color="#6e9be7"/></radialGradient></defs><path fill="url(#p.2)" d="m20.535433 417.07874l0 0c0 -93.63617 205.66699 -169.5433 459.3701 -169.5433l0 0c253.70306 0 459.37006 75.907135 459.37006 169.5433l0 0c0 93.6362 -205.66699 169.54333 -459.37006 169.54333l0 0c-253.7031 0 -459.3701 -75.907135 -459.3701 -169.54333z" fill-rule="evenodd"/><path stroke="#000000" stroke-width="1.0" stroke-linejoin="round" stroke-linecap="butt" d="m20.535433 417.07874l0 0c0 -93.63617 205.66699 -169.5433 459.3701 -169.5433l0 0c253.70306 0 459.37006 75.907135 459.37006 169.5433l0 0c0 93.6362 -205.66699 169.54333 -459.37006 169.54333l0 0c-253.7031 0 -459.3701 -75.907135 -459.3701 -169.54333z" fill-rule="evenodd"/><path fill="#ffffff" d="m115.43307 335.14435l0 0c0 -80.8423 163.22217 -146.37794 364.56693 -146.37794l0 0c201.34473 0 364.56696 65.535645 364.56696 146.37794l0 0c0 80.842316 -163.22223 146.37796 -364.56696 146.37796l0 0c-201.34476 0 -364.56693 -65.535645 -364.56693 -146.37796z" fill-rule="evenodd"/><path stroke="#000000" stroke-width="1.0" stroke-linejoin="round" stroke-linecap="butt" d="m115.43307 335.14435l0 0c0 -80.8423 163.22217 -146.37794 364.56693 -146.37794l0 0c201.34473 0 364.56696 65.535645 364.56696 146.37794l0 0c0 80.842316 -163.22223 146.37796 -364.56696 146.37796l0 0c-201.34476 0 -364.56693 -65.535645 -364.56693 -146.37796z" fill-rule="evenodd"/></g></svg>